<?xml version="1.0" standalone="no"?>
<!DOCTYPE svg PUBLIC "-//W3C//DTD SVG 20010904//EN"
 "http://www.w3.org/TR/2001/REC-SVG-20010904/DTD/svg10.dtd">
<svg version="1.0" xmlns="http://www.w3.org/2000/svg"
 width="1359.000000pt" height="1359.000000pt" viewBox="0 0 1359.000000 1359.000000"
 preserveAspectRatio="xMidYMid meet">
<metadata>
Created by potrace 1.14, written by Peter Selinger 2001-2017
</metadata>
<g transform="translate(0.000000,1359.000000) scale(0.100000,-0.100000)"
fill="#000000" stroke="none">
<path d="M12084 10417 c-53 -89 -109 -182 -125 -206 -35 -54 -36 -68 -4 -83
14 -6 25 -14 25 -17 0 -3 -1344 -6 -2987 -5 -1644 0 -2995 -2 -3004 -4 -14 -3
-16 -49 -16 -415 l-1 -412 -184 -3 -184 -2 0 42 0 43 46 0 45 0 1 240 c0 132
-1 245 -3 251 -3 7 -322 10 -1043 10 l-1040 0 0 -123 c0 -91 -3 -123 -12 -124
-7 0 -147 -1 -310 -2 l-298 -2 -1 50 c-1 28 -1 65 -1 83 2 37 18 34 -190 34
l-137 0 -3 42 -3 41 -292 1 c-198 0 -293 -3 -294 -10 -1 -6 -2 -24 -3 -41 l-1
-30 -155 -1 c-85 -1 -160 -2 -167 -3 -8 -1 -12 -29 -12 -86 l-1 -85 65 0 65 0
0 -80 0 -80 -65 0 -65 0 1 -62 c1 -118 7 -108 -64 -108 l-63 0 0 42 1 42 -417
2 -418 2 0 -43 0 -43 -83 0 c-45 0 -92 -1 -104 -1 -22 -1 -23 -3 -25 -178 l-3
-178 -42 1 c-32 0 -43 -4 -43 -15 -1 -27 -1 -914 -1 -953 l1 -38 43 1 c23 1
48 1 55 0 8 -1 12 -25 12 -86 l0 -85 -62 -1 c-35 0 -114 0 -177 1 -144 1 -197
-15 -261 -79 -124 -124 -84 -331 79 -404 41 -19 65 -21 234 -21 l187 0 0
-1733 0 -1733 -125 0 -125 0 0 -210 0 -210 125 0 125 0 0 -167 0 -168 6247 0
c3437 0 6250 3 6253 6 3 4 5 956 5 2116 l0 2108 150 1 c127 1 157 4 195 21
195 86 202 362 12 454 -42 21 -63 24 -193 25 -81 1 -151 4 -156 7 -7 4 -10
131 -4 157 0 3 22 5 49 5 l47 0 1 418 2 418 -37 -2 c-74 -4 -68 -30 -69 289 0
158 -1 298 -1 312 -1 20 -14 33 -56 58 -57 34 -63 45 -42 74 12 15 19 13 81
-23 37 -21 71 -39 74 -38 4 0 64 96 133 212 l127 212 -57 35 c-88 56 -345 211
-466 283 -60 35 -203 121 -318 191 -114 69 -209 126 -211 126 -3 0 -41 22 -85
49 l-81 50 -96 -162z m-8482 -986 c4 -1 8 -18 10 -38 3 -36 5 -38 38 -38 35 1
35 0 34 -40 l-1 -40 -349 -3 -349 -2 1 76 c0 42 5 79 11 82 8 5 564 8 605 3z
m9827 -1800 c38 -27 71 -88 71 -132 0 -18 -9 -52 -21 -75 -48 -100 -181 -121
-258 -42 -78 80 -58 207 39 260 46 25 125 20 169 -11z m-13102 2 c94 -44 117
-177 44 -257 -89 -96 -257 -49 -278 79 -22 136 110 237 234 178z"/>
</g>
</svg>
